HIERARCHY
ROOT hip
{
  OFFSET 0 90.174 2.4664
  CHANNELS 6 Xposition Yposition Zposition Zrotation Xrotation Yrotation
  JOINT abdomen
  {
    OFFSET 0 -1.186 -1.5018
    CHANNELS 6 Xposition Yposition Zposition Zrotation Xrotation Yrotation
    JOINT abdomen2
    {
      OFFSET 0 9.964 0.2134
      CHANNELS 6 Xposition Yposition Zposition Zrotation Xrotation Yrotation
      JOINT chest
      {
        OFFSET 0 13.134 -3.2573
        CHANNELS 6 Xposition Yposition Zposition Zrotation Xrotation Yrotation
        JOINT neck
        {
          OFFSET 0 20.686 -1.6905
          CHANNELS 6 Xposition Yposition Zposition Zrotation Xrotation Yrotation
          JOINT head
          {
            OFFSET 0 7.238 -0.1237
            CHANNELS 6 Xposition Yposition Zposition Zrotation Xrotation Yrotation
            End Site
            {
              OFFSET 0 0 0
            }
          }
        }
        JOINT lCollar
        {
          OFFSET 1.7069 20.075 5.0056
          CHANNELS 6 Xposition Yposition Zposition Zrotation Xrotation Yrotation
          JOINT lShldr
          {
            OFFSET 13.6458 -0.047 -4.849
            CHANNELS 6 Xposition Yposition Zposition Zrotation Xrotation Yrotation
            JOINT lForeArm
            {
              OFFSET 28.3255 -0.9759 2.2888
              CHANNELS 6 Xposition Yposition Zposition Zrotation Xrotation Yrotation
              JOINT lHand
              {
                OFFSET 22.1583 -0.53 10.8316
                CHANNELS 6 Xposition Yposition Zposition Zrotation Xrotation Yrotation
                JOINT lThumb1
                {
                  OFFSET 0.786 0.112 2.5817
                  CHANNELS 6 Xposition Yposition Zposition Zrotation Xrotation Yrotation
                  JOINT lThumb2
                  {
                    OFFSET 0.3601 -0.878 4.2331
                    CHANNELS 6 Xposition Yposition Zposition Zrotation Xrotation Yrotation
                    JOINT lThumb2_End
                    {
                      OFFSET 1.8127 -1.216 2.2227
                      CHANNELS 6 Xposition Yposition Zposition Zrotation Xrotation Yrotation
                      End Site
                      {
                        OFFSET 0.0181 -0.0122 0.0222
                      }
                    }
                  }
                }
                JOINT lCarpal1
                {
                  OFFSET 0.9571 1.114 1.7695
                  CHANNELS 6 Xposition Yposition Zposition Zrotation Xrotation Yrotation
                  JOINT lIndex1
                  {
                    OFFSET 4.1246 0.487 4.1451
                    CHANNELS 6 Xposition Yposition Zposition Zrotation Xrotation Yrotation
                    JOINT lIndex2
                    {
                      OFFSET 3.4052 -1.454 2.7682
                      CHANNELS 6 Xposition Yposition Zposition Zrotation Xrotation Yrotation
                      JOINT lIndex2_End
                      {
                        OFFSET 1.4531 -1.795 1.2713
                        CHANNELS 6 Xposition Yposition Zposition Zrotation Xrotation Yrotation
                        End Site
                        {
                          OFFSET 0.0145 -0.0179 0.0127
                        }
                      }
                    }
                  }
                  JOINT lMid1
                  {
                    OFFSET 5.6954 0.21 2.1184
                    CHANNELS 6 Xposition Yposition Zposition Zrotation Xrotation Yrotation
                    JOINT lMid2
                    {
                      OFFSET 3.9766 -1.54 2.3863
                      CHANNELS 6 Xposition Yposition Zposition Zrotation Xrotation Yrotation
                      JOINT lMid2_End
                      {
                        OFFSET 1.4042 -1.926 1.125
                        CHANNELS 6 Xposition Yposition Zposition Zrotation Xrotation Yrotation
                        End Site
                        {
                          OFFSET 0.014 -0.0193 0.0113
                        }
                      }
                    }
                  }
                }
                JOINT lCarpal2
                {
                  OFFSET 2.0956 0.66 -0.3894
                  CHANNELS 6 Xposition Yposition Zposition Zrotation Xrotation Yrotation
                  JOINT lRing1
                  {
                    OFFSET 5.0395 -0.09 2.4971
                    CHANNELS 6 Xposition Yposition Zposition Zrotation Xrotation Yrotation
                    JOINT lRing2
                    {
                      OFFSET 3.7921 -1.552 1.4806
                      CHANNELS 6 Xposition Yposition Zposition Zrotation Xrotation Yrotation
                      JOINT lRing2_End
                      {
                        OFFSET 1.4655 -1.808 0.9609
                        CHANNELS 6 Xposition Yposition Zposition Zrotation Xrotation Yrotation
                        End Site
                        {
                          OFFSET 0.0147 -0.0181 0.0096
                        }
                      }
                    }
                  }
                  JOINT lPinky1
                  {
                    OFFSET 4.9141 -1.269 0.3591
                    CHANNELS 6 Xposition Yposition Zposition Zrotation Xrotation Yrotation
                    JOINT lPinky2
                    {
                      OFFSET 3.1477 -1.685 0.8462
                      CHANNELS 6 Xposition Yposition Zposition Zrotation Xrotation Yrotation
                      JOINT lPinky2_End
                      {
                        OFFSET 0.8055 -1.585 0.7955
                        CHANNELS 6 Xposition Yposition Zposition Zrotation Xrotation Yrotation
                        End Site
                        {
                          OFFSET 0.0081 -0.0158 0.008
                        }
                      }
                    }
                  }
                }
              }
            }
          }
        }
        JOINT rCollar
        {
          OFFSET -1.7069 20.075 5.0056
          CHANNELS 6 Xposition Yposition Zposition Zrotation Xrotation Yrotation
          JOINT rShldr
          {
            OFFSET -13.6458 -0.047 -4.849
            CHANNELS 6 Xposition Yposition Zposition Zrotation Xrotation Yrotation
            JOINT rForeArm
            {
              OFFSET -28.3255 -0.9759 2.2888
              CHANNELS 6 Xposition Yposition Zposition Zrotation Xrotation Yrotation
              JOINT rHand
              {
                OFFSET -22.1583 -0.53 10.8316
                CHANNELS 6 Xposition Yposition Zposition Zrotation Xrotation Yrotation
                JOINT rThumb1
                {
                  OFFSET -0.786 0.112 2.5817
                  CHANNELS 6 Xposition Yposition Zposition Zrotation Xrotation Yrotation
                  JOINT rThumb2
                  {
                    OFFSET -0.3601 -0.878 4.2331
                    CHANNELS 6 Xposition Yposition Zposition Zrotation Xrotation Yrotation
                    JOINT rThumb2_End
                    {
                      OFFSET -1.8127 -1.216 2.2227
                      CHANNELS 6 Xposition Yposition Zposition Zrotation Xrotation Yrotation
                      End Site
                      {
                        OFFSET -0.0181 -0.0122 0.0222
                      }
                    }
                  }
                }
                JOINT rCarpal1
                {
                  OFFSET -0.9571 1.114 1.7695
                  CHANNELS 6 Xposition Yposition Zposition Zrotation Xrotation Yrotation
                  JOINT rIndex1
                  {
                    OFFSET -4.1246 0.487 4.1451
                    CHANNELS 6 Xposition Yposition Zposition Zrotation Xrotation Yrotation
                    JOINT rIndex2
                    {
                      OFFSET -3.4052 -1.454 2.7682
                      CHANNELS 6 Xposition Yposition Zposition Zrotation Xrotation Yrotation
                      JOINT rIndex2_End
                      {
                        OFFSET -1.4531 -1.795 1.2713
                        CHANNELS 6 Xposition Yposition Zposition Zrotation Xrotation Yrotation
                        End Site
                        {
                          OFFSET -0.0145 -0.018 0.0127
                        }
                      }
                    }
                  }
                  JOINT rMid1
                  {
                    OFFSET -5.6954 0.21 2.1184
                    CHANNELS 6 Xposition Yposition Zposition Zrotation Xrotation Yrotation
                    JOINT rMid2
                    {
                      OFFSET -3.9766 -1.54 2.3863
                      CHANNELS 6 Xposition Yposition Zposition Zrotation Xrotation Yrotation
                      JOINT rMid2_End
                      {
                        OFFSET -1.4042 -1.926 1.125
                        CHANNELS 6 Xposition Yposition Zposition Zrotation Xrotation Yrotation
                        End Site
                        {
                          OFFSET -0.014 -0.0193 0.0113
                        }
                      }
                    }
                  }
                }
                JOINT rCarpal2
                {
                  OFFSET -2.0956 0.66 -0.3894
                  CHANNELS 6 Xposition Yposition Zposition Zrotation Xrotation Yrotation
                  JOINT rRing1
                  {
                    OFFSET -5.0395 -0.09 2.4971
                    CHANNELS 6 Xposition Yposition Zposition Zrotation Xrotation Yrotation
                    JOINT rRing2
                    {
                      OFFSET -3.7921 -1.552 1.4806
                      CHANNELS 6 Xposition Yposition Zposition Zrotation Xrotation Yrotation
                      JOINT rRing2_End
                      {
                        OFFSET -1.4655 -1.808 0.9609
                        CHANNELS 6 Xposition Yposition Zposition Zrotation Xrotation Yrotation
                        End Site
                        {
                          OFFSET -0.0147 -0.0181 0.0096
                        }
                      }
                    }
                  }
                  JOINT rPinky1
                  {
                    OFFSET -4.9141 -1.269 0.3592
                    CHANNELS 6 Xposition Yposition Zposition Zrotation Xrotation Yrotation
                    JOINT rPinky2
                    {
                      OFFSET -3.1477 -1.685 0.8462
                      CHANNELS 6 Xposition Yposition Zposition Zrotation Xrotation Yrotation
                      JOINT rPinky2_End
                      {
                        OFFSET -0.8055 -1.585 0.7955
                        CHANNELS 6 Xposition Yposition Zposition Zrotation Xrotation Yrotation
                        End Site
                        {
                          OFFSET -0.0081 -0.0158 0.008
                        }
                      }
                    }
                  }
                }
              }
            }
          }
        }
      }
    }
  }
  JOINT lThigh
  {
    OFFSET 8.367 -8.2066 0.5982
    CHANNELS 6 Xposition Yposition Zposition Zrotation Xrotation Yrotation
    JOINT lShin
    {
      OFFSET 2.1923 -43.463 -0.4932
      CHANNELS 6 Xposition Yposition Zposition Zrotation Xrotation Yrotation
      JOINT lFoot
      {
        OFFSET 0.7333 -45.8593 -2.6451
        CHANNELS 6 Xposition Yposition Zposition Zrotation Xrotation Yrotation
        End Site
        {
          OFFSET 2.6618 -4.2699 12.3931
        }
      }
    }
  }
  JOINT rThigh
  {
    OFFSET -8.367 -8.2066 0.5982
    CHANNELS 6 Xposition Yposition Zposition Zrotation Xrotation Yrotation
    JOINT rShin
    {
      OFFSET -2.1923 -43.463 -0.4931
      CHANNELS 6 Xposition Yposition Zposition Zrotation Xrotation Yrotation
      JOINT rFoot
      {
        OFFSET -0.7333 -45.8593 -2.6451
        CHANNELS 6 Xposition Yposition Zposition Zrotation Xrotation Yrotation
        End Site
        {
          OFFSET -2.6618 -4.2699 12.3931
        }
      }
    }
  }
}
MOTION
Frames:	4
Frame Time:	0.0333333
0 90.174 2.4664 0 0 -0 0 -1.186 -1.5018 0 0 -0 0 9.964 0.2134 0 0 -0 0 13.134 -3.2573 0 0 -0 0 20.686 -1.6905 0 0 -0 0 7.238 -0.1237 0 0 -0 1.7069 20.075 5.0056 0 0 -0 13.6458 -0.047 -4.849 1.66051 0.0835086 5.75766 28.3255 -0.9759 2.2888 -0.0175111 0.895433 15.7816 22.1583 -0.53 10.8316 7.95139e-016 -1.98785e-016 -0 0.786 0.112 2.5817 5.46658e-016 -3.97569e-016 -0 0.3601 -0.878 4.2331 5.96354e-016 0 -0 1.8127 -1.216 2.2227 3.97569e-016 1.98785e-016 9.54166e-015 0.9571 1.114 1.7695 1.49089e-016 -3.97569e-016 -0 4.1246 0.487 4.1451 6.4605e-016 0 3.18055e-015 3.4052 -1.454 2.7682 5.96354e-016 0 3.18055e-015 1.4531 -1.795 1.2713 8.94531e-016 -1.98785e-016 6.36111e-015 5.6954 0.21 2.1184 6.4605e-016 0 3.18055e-015 3.9766 -1.54 2.3863 5.96354e-016 0 3.18055e-015 1.4042 -1.926 1.125 8.94531e-016 -1.98785e-016 6.36111e-015 2.0956 0.66 -0.3894 1.49089e-016 -3.97569e-016 -0 5.0395 -0.09 2.4971 6.4605e-016 0 3.18055e-015 3.7921 -1.552 1.4806 5.96354e-016 0 3.18055e-015 1.4655 -1.808 0.9609 8.94531e-016 -1.98785e-016 6.36111e-015 4.9141 -1.269 0.3591 6.4605e-016 0 3.18055e-015 3.1477 -1.685 0.8462 5.96354e-016 0 3.18055e-015 0.8055 -1.585 0.7955 8.94531e-016 -1.98785e-016 6.36111e-015 -1.7069 20.075 5.0056 0 0 -0 -13.6458 -0.047 -4.849 -1.4496 0.0636048 -5.0245 -28.3255 -0.9759 2.2888 -1.74811 1.20616 -16.8394 -22.1583 -0.53 10.8316 -1.19271e-015 1.98785e-016 -3.18055e-015 -0.786 0.112 2.5817 -3.97569e-016 1.98785e-016 -3.18055e-015 -0.3601 -0.878 4.2331 -2.98177e-016 1.98785e-016 -3.18055e-015 -1.8127 -1.216 2.2227 -2.98177e-016 3.97569e-016 -0 -0.9571 1.114 1.7695 4.96962e-016 0 -6.36111e-015 -4.1246 0.487 4.1451 -9.93923e-017 3.97569e-016 -0 -3.4052 -1.454 2.7682 -8.94531e-016 5.96354e-016 -0 -1.4531 -1.795 1.2713 -3.97569e-016 3.97569e-016 -0 -5.6954 0.21 2.1184 -9.93923e-017 3.97569e-016 -0 -3.9766 -1.54 2.3863 -8.94531e-016 5.96354e-016 -0 -1.4042 -1.926 1.125 -3.97569e-016 3.97569e-016 -0 -2.0956 0.66 -0.3894 4.96962e-016 0 -6.36111e-015 -5.0395 -0.09 2.4971 -9.93923e-017 3.97569e-016 -0 -3.7921 -1.552 1.4806 -8.94531e-016 5.96354e-016 -0 -1.4655 -1.808 0.9609 -3.97569e-016 3.97569e-016 -0 -4.9141 -1.269 0.3592 -9.93923e-017 3.97569e-016 -0 -3.1477 -1.685 0.8462 -8.94531e-016 5.96354e-016 -0 -0.8055 -1.585 0.7955 -3.97569e-016 3.97569e-016 -0 8.367 -8.2066 0.5982 -4.66115 -1.03232 0.120763 2.1923 -43.463 -0.4932 0.00990601 1.55097 0.177175 0.7333 -45.8593 -2.6451 4.65196 -0.54114 -0.255042 -8.367 -8.2066 0.5982 4.66115 -1.03222 -0.120763 -2.1923 -43.463 -0.4931 -0.00990459 1.5509 -0.177176 -0.7333 -45.8593 -2.6451 -4.65196 -0.541171 0.255041 
0.384424 12.3335 -9.95208 -0 -81.9931 -0 0 -1.186 -1.5018 0.818274 0.818767 -0.167581 -1.11022e-016 9.964 0.2134 1.63919 1.63502 -0.346893 0 13.134 -3.2573 1.63919 1.63504 -0.346893 4.44089e-016 20.686 -1.6905 6.12782e-006 -9.75902e-006 -5.08816e-006 0 7.238 -0.1237 3.64511 4.65432 -0.314469 1.7069 20.075 5.0056 -9.70325 5.12884 -17.6677 13.6458 -0.047 -4.849 81.6546 -46.1258 9.14976 28.3255 -0.9759 2.2888 -7.34062 -7.46313 -79.7566 22.1583 -0.53 10.8316 -16.1334 -30.5296 10.1249 0.786 0.112 2.5817 6.36111e-015 3.18055e-015 1.03368e-014 0.3601 -0.878 4.2331 4.114e-006 -2.26545e-006 1.08281e-006 1.8127 -1.216 2.2227 -1.08281e-006 3.0985e-007 4.114e-006 0.9571 1.114 1.7695 6.36111e-015 3.18055e-015 1.03368e-014 4.1246 0.487 4.1451 3.18055e-015 0 3.18055e-015 3.4052 -1.454 2.7682 4.114e-006 -2.26545e-006 1.08281e-006 1.4531 -1.795 1.2713 -1.08281e-006 3.0985e-007 4.114e-006 5.6954 0.21 2.1184 3.18055e-015 0 3.18055e-015 3.9766 -1.54 2.3863 4.114e-006 -2.26545e-006 1.08281e-006 1.4042 -1.926 1.125 -1.08281e-006 3.0985e-007 4.114e-006 2.0956 0.66 -0.3894 6.36111e-015 3.18055e-015 1.03368e-014 5.0395 -0.09 2.4971 3.18055e-015 0 3.18055e-015 3.7921 -1.552 1.4806 4.114e-006 -2.26545e-006 1.08281e-006 1.4655 -1.808 0.9609 -1.08281e-006 3.0985e-007 4.114e-006 4.9141 -1.269 0.3591 3.18055e-015 0 3.18055e-015 3.1477 -1.685 0.8462 4.114e-006 -2.26545e-006 1.08281e-006 0.8055 -1.585 0.7955 -1.08281e-006 3.0985e-007 4.114e-006 -1.7069 20.075 5.0056 4.87156 -0.0632376 -1.94566 -13.6458 -0.047 -4.849 50.1783 -24.2877 -6.5537 -28.3255 -0.9759 2.2888 22.8045 45.3896 -18.8959 -22.1583 -0.53 10.8316 -7.14864 -6.3042 2.95406 -0.786 0.112 2.5817 1.59028e-015 7.95139e-016 -3.18055e-015 -0.3601 -0.878 4.2331 7.34097e-006 -3.72442e-006 -4.00746e-006 -1.8127 -1.216 2.2227 -7.06225e-031 1.27222e-014 3.18055e-015 -0.9571 1.114 1.7695 1.59028e-015 -7.15625e-015 -3.18055e-015 -4.1246 0.487 4.1451 7.95139e-015 -7.95139e-016 1.27222e-014 -3.4052 -1.454 2.7682 7.34097e-006 -3.72442e-006 -4.00746e-006 -1.4531 -1.795 1.2713 3.18055e-015 1.27222e-014 6.36111e-015 -5.6954 0.21 2.1184 7.95139e-015 -7.95139e-016 1.27222e-014 -3.9766 -1.54 2.3863 7.34097e-006 -3.72442e-006 -4.00746e-006 -1.4042 -1.926 1.125 3.18055e-015 1.27222e-014 6.36111e-015 -2.0956 0.66 -0.3894 1.59028e-015 -7.15625e-015 -3.18055e-015 -5.0395 -0.09 2.4971 7.95139e-015 -7.95139e-016 1.27222e-014 -3.7921 -1.552 1.4806 7.34097e-006 -3.72442e-006 -4.00746e-006 -1.4655 -1.808 0.9609 3.18055e-015 1.27222e-014 6.36111e-015 -4.9141 -1.269 0.3592 7.95139e-015 -7.95139e-016 1.27222e-014 -3.1477 -1.685 0.8462 7.34097e-006 -3.72442e-006 -4.00746e-006 -0.8055 -1.585 0.7955 3.18055e-015 1.27222e-014 6.36111e-015 8.367 -8.2066 0.5982 3.4152 5.08768 20.8455 2.1923 -43.463 -0.4932 -2.25363 7.39817 2.20889 0.7333 -45.8593 -2.6451 14.9261 31.5115 -31.8488 -8.367 -8.2066 0.5982 8.24113 -35.4963 -7.2765 -2.1923 -43.463 -0.4931 -68.075 77.6732 49.8819 -0.7333 -45.8593 -2.6451 -8.15081 14.7446 14.9397 
0.426812 -1.73404 -10.5639 -180 -84.5898 -180 0 -1.186 -1.5018 0.95436 0.952978 -0.172537 0 9.964 0.2134 1.91198 1.90295 -0.361002 -2.22045e-016 13.134 -3.2573 1.91198 1.90294 -0.361001 -8.88178e-016 20.686 -1.6905 -8.76434e-005 -0.000560864 8.26305e-006 -4.44089e-016 7.238 -0.1237 4.24646 5.41591 -0.366356 1.7069 20.075 5.0056 -10.9911 5.8648 -20.5863 13.6458 -0.047 -4.849 95.4614 -53.6669 10.2829 28.3255 -0.9759 2.2888 -12.1492 -21.2098 -88.3805 22.1583 -0.53 10.8316 -17.5592 -35.7544 11.8406 0.786 0.112 2.5817 3.18055e-015 1.27222e-014 -1.59028e-015 0.3601 -0.878 4.2331 9.54166e-015 1.59028e-014 -0 1.8127 -1.216 2.2227 6.36111e-015 1.59028e-014 -0 0.9571 1.114 1.7695 -0 -3.18055e-015 -0 4.1246 0.487 4.1451 3.18055e-015 -9.54166e-015 -3.18055e-015 3.4052 -1.454 2.7682 6.36111e-015 1.59028e-014 1.59028e-015 1.4531 -1.795 1.2713 6.36111e-015 1.59028e-014 1.59028e-015 5.6954 0.21 2.1184 3.18055e-015 -9.54166e-015 -3.18055e-015 3.9766 -1.54 2.3863 6.36111e-015 1.59028e-014 1.59028e-015 1.4042 -1.926 1.125 6.36111e-015 1.59028e-014 1.59028e-015 2.0956 0.66 -0.3894 -0 -3.18055e-015 -0 5.0395 -0.09 2.4971 3.18055e-015 -9.54166e-015 -3.18055e-015 3.7921 -1.552 1.4806 6.36111e-015 1.59028e-014 1.59028e-015 1.4655 -1.808 0.9609 6.36111e-015 1.59028e-014 1.59028e-015 4.9141 -1.269 0.3591 3.18055e-015 -9.54166e-015 -3.18055e-015 3.1477 -1.685 0.8462 6.36111e-015 1.59028e-014 1.59028e-015 0.8055 -1.585 0.7955 6.36111e-015 1.59028e-014 1.59028e-015 -1.7069 20.075 5.0056 5.66824 -0.0736422 -2.26402 -13.6458 -0.047 -4.849 58.5137 -28.2701 -6.85764 -28.3255 -0.9759 2.2888 25.7738 53.8816 -17.6147 -22.1583 -0.53 10.8316 -8.2957 -7.31589 3.41387 -0.786 0.112 2.5817 -7.8893e-006 2.00074e-006 -6.19029e-006 -0.3601 -0.878 4.2331 7.8893e-006 -2.00074e-006 6.19029e-006 -1.8127 -1.216 2.2227 -7.8893e-006 2.00074e-006 -6.19029e-006 -0.9571 1.114 1.7695 -1.59028e-015 -1.78906e-015 -7.95139e-016 -4.1246 0.487 4.1451 -7.8893e-006 2.00074e-006 -6.19029e-006 -3.4052 -1.454 2.7682 7.8893e-006 -2.00074e-006 6.19029e-006 -1.4531 -1.795 1.2713 -7.8893e-006 2.00074e-006 -6.19029e-006 -5.6954 0.21 2.1184 -7.8893e-006 2.00074e-006 -6.19029e-006 -3.9766 -1.54 2.3863 7.8893e-006 -2.00074e-006 6.19029e-006 -1.4042 -1.926 1.125 -7.8893e-006 2.00074e-006 -6.19029e-006 -2.0956 0.66 -0.3894 -1.59028e-015 -1.78906e-015 -7.95139e-016 -5.0395 -0.09 2.4971 -7.8893e-006 2.00074e-006 -6.19029e-006 -3.7921 -1.552 1.4806 7.8893e-006 -2.00074e-006 6.19029e-006 -1.4655 -1.808 0.9609 -7.8893e-006 2.00074e-006 -6.19029e-006 -4.9141 -1.269 0.3592 -7.8893e-006 2.00074e-006 -6.19029e-006 -3.1477 -1.685 0.8462 7.8893e-006 -2.00074e-006 6.19029e-006 -0.8055 -1.585 0.7955 -7.8893e-006 2.00074e-006 -6.19029e-006 8.367 -8.2066 0.5982 4.78537 4.92981 24.2104 2.1923 -43.463 -0.4932 -2.64682 10.3783 2.74141 0.7333 -45.8593 -2.6451 19.9354 33.4032 -38.536 -8.367 -8.2066 0.5982 7.8148 -41.3896 -9.4433 -2.1923 -43.463 -0.4931 -135.009 77.4041 112.278 -0.7333 -45.8593 -2.6451 -9.51686 17.0301 17.4056 
0.41431 1.84722 -10.4652 -180 -87.9973 -180 0 -1.186 -1.5018 0.919798 0.918883 -0.171881 1.11022e-016 9.964 0.2134 1.8427 1.83488 -0.358563 0 13.134 -3.2573 1.84271 1.83489 -0.358564 -4.44089e-016 20.686 -1.6905 -3.56846e-005 -1.93898e-005 3.43241e-006 0 7.238 -0.1237 4.0936 5.22249 -0.35316 1.7069 20.075 5.0056 -10.6716 5.68203 -19.8441 13.6458 -0.047 -4.849 91.9135 -51.753 9.95652 28.3255 -0.9759 2.2888 -10.7116 -17.5458 -86.3988 22.1583 -0.53 10.8316 -17.2353 -34.4245 11.3927 0.786 0.112 2.5817 2.89311e-006 -9.42384e-007 2.19181e-006 0.3601 -0.878 4.2331 6.36111e-015 0 7.95139e-015 1.8127 -1.216 2.2227 6.36111e-015 -3.18055e-015 -3.18055e-015 0.9571 1.114 1.7695 6.36111e-015 -3.18055e-015 -6.36111e-015 4.1246 0.487 4.1451 2.89311e-006 -9.42384e-007 2.19181e-006 3.4052 -1.454 2.7682 3.18055e-015 0 -3.18055e-015 1.4531 -1.795 1.2713 9.54166e-015 -3.18055e-015 3.18055e-015 5.6954 0.21 2.1184 2.89311e-006 -9.42384e-007 2.19181e-006 3.9766 -1.54 2.3863 3.18055e-015 0 -3.18055e-015 1.4042 -1.926 1.125 9.54166e-015 -3.18055e-015 3.18055e-015 2.0956 0.66 -0.3894 6.36111e-015 -3.18055e-015 -6.36111e-015 5.0395 -0.09 2.4971 2.89311e-006 -9.42384e-007 2.19181e-006 3.7921 -1.552 1.4806 3.18055e-015 0 -3.18055e-015 1.4655 -1.808 0.9609 9.54166e-015 -3.18055e-015 3.18055e-015 4.9141 -1.269 0.3591 2.89311e-006 -9.42384e-007 2.19181e-006 3.1477 -1.685 0.8462 3.18055e-015 0 -3.18055e-015 0.8055 -1.585 0.7955 9.54166e-015 -3.18055e-015 3.18055e-015 -1.7069 20.075 5.0056 5.46592 -0.0709991 -2.18317 -13.6458 -0.047 -4.849 56.4005 -27.2588 -6.77798 -28.3255 -0.9759 2.2888 25.0948 51.6796 -18.005 -22.1583 -0.53 10.8316 -8.00488 -7.05955 3.29766 -0.786 0.112 2.5817 -1.61631e-006 -2.20155e-006 1.4308e-006 -0.3601 -0.878 4.2331 4.62577e-006 3.53787e-008 -1.83054e-006 -1.8127 -1.216 2.2227 -1.61631e-006 -2.20155e-006 1.4308e-006 -0.9571 1.114 1.7695 1.59028e-015 -2.5842e-015 -3.18055e-015 -4.1246 0.487 4.1451 -1.61631e-006 -2.20155e-006 1.4308e-006 -3.4052 -1.454 2.7682 4.62577e-006 3.53787e-008 -1.83054e-006 -1.4531 -1.795 1.2713 -1.61631e-006 -2.20155e-006 1.4308e-006 -5.6954 0.21 2.1184 -1.61631e-006 -2.20155e-006 1.4308e-006 -3.9766 -1.54 2.3863 4.62577e-006 3.53787e-008 -1.83054e-006 -1.4042 -1.926 1.125 -1.61631e-006 -2.20155e-006 1.4308e-006 -2.0956 0.66 -0.3894 1.59028e-015 -2.5842e-015 -3.18055e-015 -5.0395 -0.09 2.4971 -1.61631e-006 -2.20155e-006 1.4308e-006 -3.7921 -1.552 1.4806 4.62577e-006 3.53787e-008 -1.83054e-006 -1.4655 -1.808 0.9609 -1.61631e-006 -2.20155e-006 1.4308e-006 -4.9141 -1.269 0.3592 -1.61631e-006 -2.20155e-006 1.4308e-006 -3.1477 -1.685 0.8462 4.62577e-006 3.53787e-008 -1.83054e-006 -0.8055 -1.585 0.7955 -1.61631e-006 -2.20155e-006 1.4308e-006 8.367 -8.2066 0.5982 4.42588 4.99754 23.3568 2.1923 -43.463 -0.4932 -2.54786 9.56711 2.55089 0.7333 -45.8593 -2.6451 18.0701 32.3369 -36.5154 -8.367 -8.2066 0.5982 7.98202 -39.8688 -8.83119 -2.1923 -43.463 -0.4931 -119.541 78.8503 98.0086 -0.7333 -45.8593 -2.6451 -9.14756 16.46 16.781 
